<svg width="10" height="11" viewBox="0 0 10 11" fill="none" xmlns="http://www.w3.org/2000/svg">
<path fill-rule="evenodd" clip-rule="evenodd" d="M2.59395 6.77631C2.69346 6.87583 2.79298 6.87583 2.8925 6.87583C3.09154 6.87583 3.19106 6.77631 3.29058 6.67679L8.36609 0.805131C8.56512 0.606092 8.4656 0.307533 8.26657 0.108493C8.06753 -0.090546 7.76897 0.00897369 7.56993 0.208013L7.05378 0.805131H1.79779C1.30019 0.805131 0.802591 1.10369 0.603552 1.70081C0.404513 2.19841 0.504032 2.696 0.802591 3.09408L2.92326 5.58357L2.49443 6.07967C2.39491 6.27871 2.39491 6.57727 2.59395 6.77631ZM3.65933 4.73204L1.69827 2.39745C1.59875 2.29793 1.59875 2.19841 1.69827 2.09889C1.69827 1.97677 1.69827 1.92958 1.72125 1.91134C1.73573 1.89985 1.75932 1.89985 1.79779 1.89985H6.1075L3.65933 4.73204ZM4.3853 7.07487V10.16C4.3853 10.4585 4.68386 10.7571 4.98242 10.7571C5.28098 10.7571 5.57954 10.4585 5.57954 10.16V7.07487C5.62929 7.02511 5.70393 6.97535 5.77857 6.92559L5.77857 6.92559L5.77858 6.92559C5.85322 6.87583 5.92786 6.82607 5.97761 6.77631L9.16224 3.09408L9.26176 2.99456C9.56032 2.59648 9.56032 1.99937 9.36128 1.60129C9.36128 1.50177 9.26176 1.40225 9.16224 1.30273L8.36609 2.29793V2.39745L6.67425 4.38784L4.58434 6.87583L4.3853 7.07487Z" fill="#4A4A4A"/>
</svg>
