<svg width="13" height="13" viewBox="0 0 13 13" fill="none" xmlns="http://www.w3.org/2000/svg">
<path fill-rule="evenodd" clip-rule="evenodd" d="M11.6655 5.36297L12.5917 5.59177C12.832 5.65014 12.9977 5.86261 13 6.10075V6.98797C13 7.24946 12.811 7.47126 12.5544 7.51562L11.6725 7.66739L11.4555 7.70474L11.3902 7.91487C11.2735 8.30945 11.1079 8.68768 10.8979 9.04023L10.7882 9.22468L10.8979 9.40679L11.3272 10.1072C11.4578 10.3197 11.4252 10.5905 11.2502 10.7656L10.6226 11.3937C10.5223 11.4941 10.3869 11.5501 10.2446 11.5501C10.1326 11.5501 10.0253 11.5174 9.93431 11.452L9.26238 10.9734L9.08274 10.8473L8.88909 10.9501C8.59745 11.1018 8.27782 11.2279 7.93485 11.3236L7.71788 11.3843L7.68055 11.6061L7.51956 12.5564C7.47523 12.8132 7.25359 13 6.99228 13H6.10571C5.8584 13 5.64375 12.8319 5.58776 12.5938L5.33345 11.5478L5.28679 11.3493L5.09081 11.2909C4.78751 11.1976 4.49121 11.0785 4.21357 10.9291L4.01992 10.8263L3.84027 10.9524L2.8907 11.6272C2.79738 11.6902 2.69006 11.7252 2.5804 11.7252C2.43575 11.7252 2.30276 11.6692 2.20011 11.5688L1.57484 10.9407C1.39986 10.7656 1.36719 10.4925 1.49551 10.2847L2.13711 9.22935L2.24444 9.05424L2.14645 8.87446C1.98546 8.58261 1.85481 8.26976 1.75682 7.94289L1.69383 7.73276L1.47685 7.6954L0.443288 7.51796C0.186648 7.4736 0 7.2518 0 6.9903V6.10309C0 5.8556 0.167983 5.64314 0.408291 5.58244L1.48618 5.32094L1.68683 5.27425L1.74515 5.07579C1.83381 4.7676 1.9458 4.47809 2.08112 4.20959L2.17678 4.01814L2.05312 3.84303L1.37419 2.88578C1.22487 2.67565 1.24821 2.38147 1.43019 2.19702L2.05779 1.56897C2.15811 1.46624 2.29343 1.41254 2.43575 1.41254C2.53374 1.41254 2.6294 1.44055 2.71339 1.48958L3.72129 2.10363L3.90093 2.2157L4.08291 2.11063C4.40488 1.92619 4.74785 1.77909 5.09781 1.6717L5.29146 1.61099L5.34045 1.41487L5.58543 0.40625C5.64375 0.165769 5.8584 0 6.10571 0H6.99462C7.25359 0 7.47757 0.186782 7.5219 0.445941L7.67588 1.35884L7.71321 1.58297L7.93019 1.64368C8.31981 1.75341 8.69544 1.90984 9.04307 2.10596L9.22272 2.20869L9.40004 2.10129L10.107 1.6717C10.1933 1.62033 10.2889 1.59231 10.3869 1.59231C10.5293 1.59231 10.6622 1.64835 10.7626 1.74874L11.3925 2.3768C11.5768 2.56124 11.6001 2.85075 11.4508 3.06322L11.0029 3.69361L10.8746 3.87572L10.9819 4.07184C11.1615 4.39871 11.3038 4.75126 11.4065 5.11548L11.4648 5.31394L11.6655 5.36297ZM3.51364 6.48599C3.51364 8.16703 4.87383 9.5282 6.55133 9.5282C8.22882 9.5282 9.58902 8.16703 9.59135 6.48599C9.59135 4.80496 8.22882 3.44379 6.55133 3.44379C4.87383 3.44379 3.51364 4.80496 3.51364 6.48599Z" fill="black"/>
</svg>
