<svg width="21" height="20" viewBox="0 0 21 20" fill="none" xmlns="http://www.w3.org/2000/svg">
<path d="M7.68335 7.8H12.6833V10.3C12.6833 11.6807 11.5641 12.8 10.1833 12.8C8.80264 12.8 7.68335 11.6807 7.68335 10.3V7.8Z" stroke="black"/>
<path d="M6.33333 5.62622L6.68688 5.27267L6.33333 4.91911L5.97977 5.27267L6.33333 5.62622ZM6.68688 5.97977L6.33333 6.33333L6.68688 5.97977ZM5.62622 6.33333L5.27267 5.97977L4.91911 6.33333L5.27267 6.68688L5.62622 6.33333ZM5.97977 6.68688L6.33333 6.33333L5.97977 6.68688ZM7.31311 8.02021L6.95955 8.37377L6.95955 8.37377L7.31311 8.02021ZM7.66666 8.37377L7.31311 8.72732L7.66666 9.08087L8.02021 8.72732L7.66666 8.37377ZM8.37377 7.66666L8.72732 8.02021L9.08087 7.66666L8.72732 7.31311L8.37377 7.66666ZM8.02021 7.31311L8.37377 6.95955L8.37377 6.95955L8.02021 7.31311ZM14.3333 5.62622L14.6869 5.27267L14.3333 4.91911L13.9798 5.27267L14.3333 5.62622ZM13.9798 5.97977L13.6262 5.62622L13.6262 5.62622L13.9798 5.97977ZM15.0404 6.33333L15.394 6.68688L15.7475 6.33333L15.394 5.97977L15.0404 6.33333ZM14.6869 6.68688L14.3333 6.33333L14.3333 6.33333L14.6869 6.68688ZM13.3535 8.02021L13.7071 8.37377L13.3535 8.02021ZM13 8.37377L12.6464 8.72732L13 9.08087L13.3535 8.72732L13 8.37377ZM12.2929 7.66666L11.9393 7.31311L11.5858 7.66666L11.9393 8.02021L12.2929 7.66666ZM12.6464 7.31311L13 7.66666V7.66666L12.6464 7.31311ZM5.97977 5.97977L6.33333 6.33333L7.04043 5.62622L6.68688 5.27267L5.97977 5.97977ZM5.97977 6.68688L6.68688 5.97977L5.97977 5.27267L5.27267 5.97977L5.97977 6.68688ZM6.33333 6.33333L5.97977 5.97977L5.27267 6.68688L5.62622 7.04043L6.33333 6.33333ZM7.66666 7.66666L6.33333 6.33333L5.62622 7.04043L6.95955 8.37377L7.66666 7.66666ZM8.02021 8.02021L7.66666 7.66666L6.95955 8.37377L7.31311 8.72732L8.02021 8.02021ZM8.02021 7.31311L7.31311 8.02021L8.02021 8.72732L8.72732 8.02021L8.02021 7.31311ZM7.66666 7.66666L8.02021 8.02021L8.72732 7.31311L8.37377 6.95955L7.66666 7.66666ZM6.33333 6.33333L7.66666 7.66666L8.37377 6.95955L7.04043 5.62622L6.33333 6.33333ZM13.9798 5.27267L13.6262 5.62622L14.3333 6.33333L14.6869 5.97977L13.9798 5.27267ZM15.394 5.97977L14.6869 5.27267L13.9798 5.97977L14.6869 6.68688L15.394 5.97977ZM15.0404 7.04043L15.394 6.68688L14.6869 5.97977L14.3333 6.33333L15.0404 7.04043ZM13.7071 8.37377L15.0404 7.04043L14.3333 6.33333L13 7.66666L13.7071 8.37377ZM13.3535 8.72732L13.7071 8.37377L13 7.66666L12.6464 8.02021L13.3535 8.72732ZM11.9393 8.02021L12.6464 8.72732L13.3535 8.02021L12.6464 7.31311L11.9393 8.02021ZM12.2929 6.95955L11.9393 7.31311L12.6464 8.02021L13 7.66666L12.2929 6.95955ZM13.6262 5.62622L12.2929 6.95955L13 7.66666L14.3333 6.33333L13.6262 5.62622Z" fill="black"/>
<path d="M6.55769 14.2456L6.91125 14.5991L6.55769 14.9527L6.20414 14.5991L6.55769 14.2456ZM6.91125 13.892L6.55769 13.5385L6.55769 13.5385L6.91125 13.892ZM5.85059 13.5385L5.49703 13.892L5.14348 13.5385L5.49703 13.1849L5.85059 13.5385ZM6.20414 13.1849L6.55769 13.5385L6.55769 13.5385L6.20414 13.1849ZM7.43491 11.9541L7.08136 11.6006L7.08136 11.6006L7.43491 11.9541ZM7.78846 11.6006L7.43491 11.247L7.78846 10.8935L8.14202 11.247L7.78846 11.6006ZM8.49557 12.3077L8.84912 11.9541L9.20268 12.3077L8.84912 12.6613L8.49557 12.3077ZM8.14202 12.6613L8.49557 13.0148L8.49557 13.0148L8.14202 12.6613ZM13.9423 14.2456L14.2959 14.5991L13.9423 14.9527L13.5888 14.5991L13.9423 14.2456ZM13.5888 13.892L13.9423 13.5385V13.5385L13.5888 13.892ZM14.6494 13.5385L15.003 13.1849L15.3565 13.5385L15.003 13.892L14.6494 13.5385ZM14.2959 13.1849L14.6494 12.8314V12.8314L14.2959 13.1849ZM13.0651 11.9541L13.4186 11.6006V11.6006L13.0651 11.9541ZM12.7115 11.6006L12.358 11.247L12.7115 10.8935L13.0651 11.247L12.7115 11.6006ZM12.0044 12.3077L11.6509 12.6613L11.2973 12.3077L11.6509 11.9541L12.0044 12.3077ZM12.358 12.6613L12.0044 13.0148V13.0148L12.358 12.6613ZM6.20414 13.892L6.55769 13.5385L7.2648 14.2456L6.91125 14.5991L6.20414 13.892ZM6.20414 13.1849L6.91125 13.892L6.20414 14.5991L5.49703 13.892L6.20414 13.1849ZM6.55769 13.5385L6.20414 13.892L5.49703 13.1849L5.85059 12.8314L6.55769 13.5385ZM7.78846 12.3077L6.55769 13.5385L5.85059 12.8314L7.08136 11.6006L7.78846 12.3077ZM8.14202 11.9541L7.78846 12.3077L7.08136 11.6006L7.43491 11.247L8.14202 11.9541ZM8.14202 12.6613L7.43491 11.9541L8.14202 11.247L8.84912 11.9541L8.14202 12.6613ZM7.78846 12.3077L8.14202 11.9541L8.84912 12.6613L8.49557 13.0148L7.78846 12.3077ZM6.55769 13.5385L7.78846 12.3077L8.49557 13.0148L7.2648 14.2456L6.55769 13.5385ZM13.5888 14.5991L13.2352 14.2456L13.9423 13.5385L14.2959 13.892L13.5888 14.5991ZM15.003 13.892L14.2959 14.5991L13.5888 13.892L14.2959 13.1849L15.003 13.892ZM14.6494 12.8314L15.003 13.1849L14.2959 13.892L13.9423 13.5385L14.6494 12.8314ZM13.4186 11.6006L14.6494 12.8314L13.9423 13.5385L12.7115 12.3077L13.4186 11.6006ZM13.0651 11.247L13.4186 11.6006L12.7115 12.3077L12.358 11.9541L13.0651 11.247ZM11.6509 11.9541L12.358 11.247L13.0651 11.9541L12.358 12.6613L11.6509 11.9541ZM12.0044 13.0148L11.6509 12.6613L12.358 11.9541L12.7115 12.3077L12.0044 13.0148ZM13.2352 14.2456L12.0044 13.0148L12.7115 12.3077L13.9423 13.5385L13.2352 14.2456Z" fill="black"/>
<path d="M5.17004 9V8.5H4.67004V9H5.17004ZM5.17004 10H4.67004V10.5H5.17004V10ZM8.17004 10V10.5H8.67004V10H8.17004ZM8.17004 9H8.67004V8.5H8.17004V9ZM12.17 9V8.5H11.67V9H12.17ZM12.17 10H11.67V10.5H12.17V10ZM15.17 10V10.5H15.67V10H15.17ZM15.17 9H15.67V8.5H15.17V9ZM5.17004 9.5H5.67004V8.5H5.17004V9.5ZM5.67004 10V9H4.67004V10H5.67004ZM5.67004 9.5H5.17004V10.5H5.67004V9.5ZM7.67004 9.5H5.67004V10.5H7.67004V9.5ZM8.17004 9.5H7.67004V10.5H8.17004V9.5ZM7.67004 9V10H8.67004V9H7.67004ZM7.67004 9.5H8.17004V8.5H7.67004V9.5ZM5.67004 9.5H7.67004V8.5H5.67004V9.5ZM12.17 9.5H12.67V8.5H12.17V9.5ZM12.67 10V9H11.67V10H12.67ZM12.67 9.5H12.17V10.5H12.67V9.5ZM14.67 9.5H12.67V10.5H14.67V9.5ZM15.17 9.5H14.67V10.5H15.17V9.5ZM14.67 9V10H15.67V9H14.67ZM14.67 9.5H15.17V8.5H14.67V9.5ZM12.67 9.5H14.67V8.5H12.67V9.5Z" fill="black"/>
<path d="M9.25 6.5C9.25 5.94772 9.69772 5.5 10.25 5.5C10.8023 5.5 11.25 5.94772 11.25 6.5H9.25Z" stroke="black"/>
</svg>
