<svg width="9" height="11" viewBox="0 0 9 11" fill="none" xmlns="http://www.w3.org/2000/svg">
<path fill-rule="evenodd" clip-rule="evenodd" d="M7.73214 0C8.22889 0 8.6674 0.303495 8.8798 0.795831C9.07508 1.2477 9.03054 1.78387 8.7599 2.19528L8.73934 2.22563L8.67768 2.30993L5.45053 6.04629C5.34775 6.16769 5.221 6.26548 5.08396 6.3363V10.4267C5.08396 10.7403 4.8236 11 4.50157 11C4.18296 11 3.91917 10.7437 3.91917 10.4267V6.32955C3.78557 6.25874 3.66566 6.16432 3.56289 6.04629L0.335737 2.30993C0.0034296 1.92888 -0.0890683 1.37922 0.0890758 0.880135C0.280923 0.343961 0.746839 0 1.27785 0H7.73214ZM7.80409 1.60178L7.81779 1.58492C7.87945 1.48038 7.88631 1.34212 7.83834 1.23084C7.80066 1.14316 7.74927 1.11281 7.73214 1.11281H1.27785C1.22303 1.11281 1.1785 1.18363 1.15451 1.2477C1.10655 1.38259 1.13739 1.52085 1.19562 1.58829L4.42277 5.32802C4.44333 5.355 4.47416 5.36849 4.50499 5.36849C4.53583 5.36849 4.56666 5.355 4.58721 5.32802L7.80409 1.60178Z" fill="#4A4A4A"/>
</svg>
