<svg width="11" height="9" viewBox="0 0 11 9" fill="none" xmlns="http://www.w3.org/2000/svg">
<path d="M2.83871 8.93193V7.86742H1.24194C1.14395 7.86742 1.06452 7.78798 1.06452 7.69V6.09322H0V7.69C0 8.3759 0.556033 8.93193 1.24194 8.93193H2.83871Z" fill="black"/>
<path d="M1.06452 1.30645C1.06452 1.20846 1.14395 1.12903 1.24194 1.12903H2.83871V0.0645142H1.24194C0.556033 0.0645142 0 0.620548 0 1.30645V2.90322H1.06452V1.30645Z" fill="black"/>
<path fill-rule="evenodd" clip-rule="evenodd" d="M8.82958 8.93548H5.71292L4.61292 8.94V0.0599976L5.71292 0.0645137H8.82958C9.53835 0.0645137 10.1129 0.620547 10.1129 1.30645V7.69355C10.1129 8.37945 9.53835 8.93548 8.82958 8.93548ZM8.82958 1.12903H5.71292V7.87097H8.82958C8.93083 7.87097 9.01292 7.79153 9.01292 7.69355V1.30645C9.01292 1.20846 8.93083 1.12903 8.82958 1.12903Z" fill="#FF7272"/>
<path d="M5.5 3.5L8.25772 0.742279" stroke="#FF6565" stroke-linecap="square"/>
<path d="M7 8L9.32843 5.67157" stroke="#FF6565" stroke-linecap="square"/>
<path d="M5.5 6.5L9.03553 2.96446" stroke="#FF6565" stroke-linecap="square"/>
</svg>
