<svg width="10" height="11" viewBox="0 0 10 11" fill="none" xmlns="http://www.w3.org/2000/svg">
<path d="M1.22807 9.93193H2.80702V8.86742H1.22807C1.13118 8.86742 1.05263 8.78798 1.05263 8.69V7.09322H0V8.69C0 9.3759 0.549826 9.93193 1.22807 9.93193Z" fill="black"/>
<path d="M1.05263 2.30645C1.05263 2.20846 1.13118 2.12903 1.22807 2.12903H2.80702V1.06451H1.22807C0.549826 1.06451 0 1.62055 0 2.30645V3.90322H1.05263V2.30645Z" fill="black"/>
<path fill-rule="evenodd" clip-rule="evenodd" d="M8.73099 9.93548H5.64912V11H4.5614V0H5.64912V1.06452H8.73099C9.43184 1.06452 10 1.62055 10 2.30645V8.69355C10 9.37945 9.43184 9.93548 8.73099 9.93548ZM8.73099 2.12903H5.64912V8.87097H8.73099C8.83111 8.87097 8.91228 8.79153 8.91228 8.69355V2.30645C8.91228 2.20847 8.83111 2.12903 8.73099 2.12903Z" fill="black"/>
</svg>
