<svg width="12" height="11" viewBox="0 0 12 11" fill="none" xmlns="http://www.w3.org/2000/svg">
<path d="M3.68335 3.8H8.68335V6.3C8.68335 7.68071 7.56406 8.8 6.18335 8.8C4.80264 8.8 3.68335 7.68071 3.68335 6.3V3.8Z" stroke="black"/>
<path d="M2.33333 1.62622L2.68688 1.27267L2.33333 0.919114L1.97977 1.27267L2.33333 1.62622ZM2.68688 1.97977L2.33333 2.33333L2.68688 1.97977ZM1.62622 2.33333L1.27267 1.97977L0.919114 2.33333L1.27267 2.68688L1.62622 2.33333ZM1.97977 2.68688L2.33333 2.33333L1.97977 2.68688ZM3.31311 4.02021L2.95955 4.37377L2.95955 4.37377L3.31311 4.02021ZM3.66666 4.37377L3.31311 4.72732L3.66666 5.08087L4.02021 4.72732L3.66666 4.37377ZM4.37377 3.66666L4.72732 4.02021L5.08087 3.66666L4.72732 3.31311L4.37377 3.66666ZM4.02021 3.31311L4.37377 2.95955L4.37377 2.95955L4.02021 3.31311ZM10.3333 1.62622L10.6869 1.27267L10.3333 0.919114L9.97978 1.27267L10.3333 1.62622ZM9.97977 1.97977L9.62622 1.62622L9.62622 1.62622L9.97977 1.97977ZM11.0404 2.33333L11.394 2.68688L11.7475 2.33333L11.394 1.97977L11.0404 2.33333ZM10.6869 2.68688L10.3333 2.33333L10.3333 2.33333L10.6869 2.68688ZM9.35355 4.02021L9.7071 4.37377L9.35355 4.02021ZM8.99999 4.37377L8.64644 4.72732L8.99999 5.08087L9.35355 4.72732L8.99999 4.37377ZM8.29289 3.66666L7.93933 3.31311L7.58578 3.66666L7.93933 4.02021L8.29289 3.66666ZM8.64644 3.31311L8.99999 3.66666V3.66666L8.64644 3.31311ZM1.97977 1.97977L2.33333 2.33333L3.04043 1.62622L2.68688 1.27267L1.97977 1.97977ZM1.97977 2.68688L2.68688 1.97977L1.97977 1.27267L1.27267 1.97977L1.97977 2.68688ZM2.33333 2.33333L1.97977 1.97977L1.27267 2.68688L1.62622 3.04043L2.33333 2.33333ZM3.66666 3.66666L2.33333 2.33333L1.62622 3.04043L2.95955 4.37377L3.66666 3.66666ZM4.02021 4.02021L3.66666 3.66666L2.95955 4.37377L3.31311 4.72732L4.02021 4.02021ZM4.02021 3.31311L3.31311 4.02021L4.02021 4.72732L4.72732 4.02021L4.02021 3.31311ZM3.66666 3.66666L4.02021 4.02021L4.72732 3.31311L4.37377 2.95955L3.66666 3.66666ZM2.33333 2.33333L3.66666 3.66666L4.37377 2.95955L3.04043 1.62622L2.33333 2.33333ZM9.97978 1.27267L9.62622 1.62622L10.3333 2.33333L10.6869 1.97977L9.97978 1.27267ZM11.394 1.97977L10.6869 1.27267L9.97977 1.97977L10.6869 2.68688L11.394 1.97977ZM11.0404 3.04043L11.394 2.68688L10.6869 1.97977L10.3333 2.33333L11.0404 3.04043ZM9.7071 4.37377L11.0404 3.04043L10.3333 2.33333L8.99999 3.66666L9.7071 4.37377ZM9.35355 4.72732L9.7071 4.37377L8.99999 3.66666L8.64644 4.02021L9.35355 4.72732ZM7.93933 4.02021L8.64644 4.72732L9.35355 4.02021L8.64644 3.31311L7.93933 4.02021ZM8.29289 2.95955L7.93933 3.31311L8.64644 4.02021L8.99999 3.66666L8.29289 2.95955ZM9.62622 1.62622L8.29289 2.95955L8.99999 3.66666L10.3333 2.33333L9.62622 1.62622Z" fill="black"/>
<path d="M2.55769 10.2456L2.91125 10.5991L2.55769 10.9527L2.20414 10.5991L2.55769 10.2456ZM2.91125 9.89202L2.55769 9.53847L2.55769 9.53847L2.91125 9.89202ZM1.85059 9.53847L1.49703 9.89202L1.14348 9.53847L1.49703 9.18491L1.85059 9.53847ZM2.20414 9.18491L2.55769 9.53847L2.55769 9.53847L2.20414 9.18491ZM3.43491 7.95415L3.08136 7.60059L3.08136 7.60059L3.43491 7.95415ZM3.78846 7.60059L3.43491 7.24704L3.78846 6.89349L4.14202 7.24704L3.78846 7.60059ZM4.49557 8.3077L4.84912 7.95415L5.20268 8.3077L4.84912 8.66125L4.49557 8.3077ZM4.14202 8.66125L4.49557 9.01481L4.49557 9.01481L4.14202 8.66125ZM9.94231 10.2456L10.2959 10.5991L9.94231 10.9527L9.58875 10.5991L9.94231 10.2456ZM9.58875 9.89202L9.94231 9.53847V9.53847L9.58875 9.89202ZM10.6494 9.53847L11.003 9.18492L11.3565 9.53847L11.003 9.89202L10.6494 9.53847ZM10.2959 9.18491L10.6494 8.83136V8.83136L10.2959 9.18491ZM9.06509 7.95415L9.41865 7.60059V7.60059L9.06509 7.95415ZM8.71154 7.60059L8.35799 7.24704L8.71154 6.89349L9.06509 7.24704L8.71154 7.60059ZM8.00443 8.3077L7.65088 8.66125L7.29733 8.3077L7.65088 7.95415L8.00443 8.3077ZM8.35799 8.66125L8.00443 9.01481V9.01481L8.35799 8.66125ZM2.20414 9.89202L2.55769 9.53847L3.2648 10.2456L2.91125 10.5991L2.20414 9.89202ZM2.20414 9.18491L2.91125 9.89202L2.20414 10.5991L1.49703 9.89202L2.20414 9.18491ZM2.55769 9.53847L2.20414 9.89202L1.49703 9.18491L1.85059 8.83136L2.55769 9.53847ZM3.78846 8.3077L2.55769 9.53847L1.85059 8.83136L3.08136 7.60059L3.78846 8.3077ZM4.14202 7.95415L3.78846 8.3077L3.08136 7.60059L3.43491 7.24704L4.14202 7.95415ZM4.14202 8.66125L3.43491 7.95415L4.14202 7.24704L4.84912 7.95415L4.14202 8.66125ZM3.78846 8.3077L4.14202 7.95415L4.84912 8.66125L4.49557 9.01481L3.78846 8.3077ZM2.55769 9.53847L3.78846 8.3077L4.49557 9.01481L3.2648 10.2456L2.55769 9.53847ZM9.58875 10.5991L9.2352 10.2456L9.94231 9.53847L10.2959 9.89202L9.58875 10.5991ZM11.003 9.89202L10.2959 10.5991L9.58875 9.89202L10.2959 9.18491L11.003 9.89202ZM10.6494 8.83136L11.003 9.18492L10.2959 9.89202L9.94231 9.53847L10.6494 8.83136ZM9.41865 7.60059L10.6494 8.83136L9.94231 9.53847L8.71154 8.3077L9.41865 7.60059ZM9.06509 7.24704L9.41865 7.60059L8.71154 8.3077L8.35799 7.95415L9.06509 7.24704ZM7.65088 7.95415L8.35799 7.24704L9.06509 7.95415L8.35799 8.66125L7.65088 7.95415ZM8.00443 9.01481L7.65088 8.66125L8.35799 7.95415L8.71154 8.3077L8.00443 9.01481ZM9.2352 10.2456L8.00443 9.01481L8.71154 8.3077L9.94231 9.53847L9.2352 10.2456Z" fill="black"/>
<path d="M1.17004 5V4.5H0.670044V5H1.17004ZM1.17004 6H0.670044V6.5H1.17004V6ZM4.17004 6V6.5H4.67004V6H4.17004ZM4.17004 5H4.67004V4.5H4.17004V5ZM8.17004 5V4.5H7.67004V5H8.17004ZM8.17004 6H7.67004V6.5H8.17004V6ZM11.17 6V6.5H11.67V6H11.17ZM11.17 5H11.67V4.5H11.17V5ZM1.17004 5.5H1.67004V4.5H1.17004V5.5ZM1.67004 6V5H0.670044V6H1.67004ZM1.67004 5.5H1.17004V6.5H1.67004V5.5ZM3.67004 5.5H1.67004V6.5H3.67004V5.5ZM4.17004 5.5H3.67004V6.5H4.17004V5.5ZM3.67004 5V6H4.67004V5H3.67004ZM3.67004 5.5H4.17004V4.5H3.67004V5.5ZM1.67004 5.5H3.67004V4.5H1.67004V5.5ZM8.17004 5.5H8.67004V4.5H8.17004V5.5ZM8.67004 6V5H7.67004V6H8.67004ZM8.67004 5.5H8.17004V6.5H8.67004V5.5ZM10.67 5.5H8.67004V6.5H10.67V5.5ZM11.17 5.5H10.67V6.5H11.17V5.5ZM10.67 5V6H11.67V5H10.67ZM10.67 5.5H11.17V4.5H10.67V5.5ZM8.67004 5.5H10.67V4.5H8.67004V5.5Z" fill="black"/>
<path d="M5.25 2.5C5.25 1.94772 5.69772 1.5 6.25 1.5C6.80228 1.5 7.25 1.94772 7.25 2.5H5.25Z" stroke="black"/>
</svg>
