<svg width="21" height="21" viewBox="0 0 21 21" fill="none" xmlns="http://www.w3.org/2000/svg">
<circle cx="10.4772" cy="10.5262" r="10.2918" fill="white"/>
<path d="M17.0265 12.3974C17.0265 8.78022 14.0942 5.84795 10.4772 5.84795C6.86 5.84795 3.92773 8.78022 3.92773 12.3974H5.79894C5.79894 9.81364 7.89342 7.71916 10.477 7.71916C13.0606 7.71916 15.1551 9.81364 15.1551 12.3974" fill="black" fill-opacity="0.1"/>
<circle cx="10.945" cy="11.836" r="3.55539" fill="black" fill-opacity="0.1"/>
<circle cx="10.4772" cy="10.526" r="3.836" fill="url(#paint0_linear)"/>
<path d="M19.8334 5.84795C17.2575 0.665495 10.9682 -1.44765 5.78559 1.12811C4.16957 1.93127 2.78848 3.13809 1.77594 4.63179L5.98626 11.9296C5.21085 9.46511 6.58027 6.83851 9.04476 6.06323C9.47815 5.92692 9.92934 5.85434 10.3836 5.84807" fill="url(#paint1_linear)"/>
<path d="M1.77594 4.63179C-1.44664 9.43895 -0.162079 15.9482 4.64508 19.1708C6.13239 20.1679 7.85034 20.7672 9.6351 20.9116L14.0326 13.4267C12.3883 15.4197 9.43996 15.7022 7.44704 14.058C6.77013 13.4996 6.26392 12.7621 5.98625 11.9297" fill="url(#paint2_linear)"/>
<path d="M9.63507 20.9116C15.4059 21.3478 20.4378 17.0233 20.8741 11.2524C21.0149 9.39044 20.6556 7.52476 19.8332 5.84808H10.3836C12.9671 5.85999 15.052 7.96404 15.0401 10.5477C15.0353 11.5929 14.6805 12.6066 14.0324 13.4267" fill="url(#paint3_linear)"/>
<path d="M1.77594 4.6318L5.98626 11.9296C5.67433 10.88 5.74064 9.7542 6.17329 8.74841L1.96298 4.35106" fill="url(#paint4_linear)"/>
<path d="M9.63509 20.9116L14.0326 13.4267C13.3387 14.2541 12.3801 14.8159 11.3193 15.0172L9.44794 20.9116" fill="url(#paint5_linear)"/>
<path d="M19.8334 5.84795H10.3836C11.8069 5.85459 13.15 6.50878 14.0324 7.62571L20.0204 6.12869" fill="url(#paint6_linear)"/>
<defs>
<linearGradient id="paint0_linear" x1="6.6424" y1="6.6935" x2="6.6424" y2="14.364" gradientUnits="userSpaceOnUse">
<stop stop-color="#81B4E0"/>
<stop offset="1" stop-color="#0C5A94"/>
</linearGradient>
<linearGradient id="paint1_linear" x1="4.34428" y1="0.0471739" x2="4.34428" y2="8.56135" gradientUnits="userSpaceOnUse">
<stop stop-color="#F06B59"/>
<stop offset="1" stop-color="#DF2227"/>
</linearGradient>
<linearGradient id="paint2_linear" x1="5.6143" y1="20.4712" x2="10.813" y2="14.0897" gradientUnits="userSpaceOnUse">
<stop stop-color="#388B41"/>
<stop offset="1" stop-color="#4CB749"/>
</linearGradient>
<linearGradient id="paint3_linear" x1="21.0886" y1="15.6607" x2="14.163" y2="6.36454" gradientUnits="userSpaceOnUse">
<stop stop-color="#E4B022"/>
<stop offset="0.3" stop-color="#FCD209"/>
</linearGradient>
<linearGradient id="paint4_linear" x1="6.14602" y1="11.649" x2="6.14602" y2="4.1641" gradientUnits="userSpaceOnUse">
<stop stop-opacity="0.15"/>
<stop offset="0.3" stop-opacity="0.06"/>
<stop offset="1" stop-opacity="0.03"/>
</linearGradient>
<linearGradient id="paint5_linear" x1="12.7013" y1="9.86548" x2="6.46415" y2="12.2481" gradientUnits="userSpaceOnUse">
<stop stop-opacity="0.15"/>
<stop offset="0.3" stop-opacity="0.06"/>
<stop offset="1" stop-opacity="0.03"/>
</linearGradient>
<linearGradient id="paint6_linear" x1="34.264" y1="15.6424" x2="34.2894" y2="8.2489" gradientUnits="userSpaceOnUse">
<stop stop-opacity="0.15"/>
<stop offset="0.3" stop-opacity="0.06"/>
<stop offset="1" stop-opacity="0.03"/>
</linearGradient>
</defs>
</svg>
