<?xml version="1.0" encoding="UTF-8"?>
<svg width="115px" height="156px" viewBox="0 0 115 156" version="1.1" xmlns="http://www.w3.org/2000/svg" xmlns:xlink="http://www.w3.org/1999/xlink">
    <title>Robot</title>
    <g id="ML-EXPERIMENTS" stroke="none" stroke-width="1" fill="none" fill-rule="evenodd">
        <g id="-Automation---Exceptions-not-available" transform="translate(-910.000000, -314.000000)" fill="#CCCCCC" fill-rule="nonzero">
            <path d="M953.4,322.2 C956.466669,322.2 958,320.8 958,318 C958,315.333337 956.466669,314 953.4,314 C950.333334,314 948.8,315.333337 948.8,318 C948.8,320.8 950.333334,322.2 953.4,322.2 Z M967.4,322.2 C970.466669,322.2 972,320.8 972,318 C972,315.333337 970.466669,314 967.4,314 C964.333331,314 962.8,315.333337 962.8,318 C962.8,320.8 964.333331,322.2 967.4,322.2 Z M981.4,322.2 C984.466669,322.2 986,320.8 986,318 C986,315.333337 984.466669,314 981.4,314 C978.333331,314 976.8,315.333337 976.8,318 C976.8,320.8 978.333331,322.2 981.4,322.2 Z M1014.2,379.4 L1011.6,325.4 L922.8,327.4 L920.6,377.4 L1014.2,379.4 Z M1006,372.4 L928.8,371 L930.8,333.8 L1004.4,332.4 L1006,372.4 Z M914.6,356 C917.266666,356 918.6,354.466663 918.6,351.4 C918.6,349.666663 918.333331,348.433337 917.8,347.7 C917.266666,346.966663 916.2,346.6 914.6,346.6 C911.8,346.6 910.4,348.2 910.4,351.4 C910.4,354.466663 911.8,356 914.6,356 Z M1020.2,356 C1022.86666,356 1024.2,354.466663 1024.2,351.4 C1024.2,349.666663 1023.93334,348.433337 1023.4,347.7 C1022.86666,346.966663 1021.8,346.6 1020.2,346.6 C1017.4,346.6 1016,348.2 1016,351.4 C1016,354.466663 1017.4,356 1020.2,356 Z M996.6,367 L997.4,359.8 L937.6,359.8 L937.8,363.8 L996.6,367 Z M975.8,387.6 L975,382 L959.6,382.8 L959,387 L975.8,387.6 Z M926.8,402.8 L931,397 L930.4,391 L919.4,392.4 L918.8,401.8 L926.8,402.8 Z M941,432.4 L993.6,430 L1002.4,391 L932.6,391 L941,432.4 Z M1008,402.8 L1016,401.8 L1015.4,392.4 L1004.4,391 L1003.8,397 L1008,402.8 Z M915.2,416.8 L927.4,416.6 L926.4,405 L918.2,405 L915.2,416.8 Z M1019.6,416.8 L1016.6,405 L1008.4,405 L1007.4,416.6 L1019.6,416.8 Z M967.4,417.2 C964.733331,417.2 963.4,416.066669 963.4,413.8 C963.4,411.533331 964.733331,410.4 967.4,410.4 C970.066669,410.4 971.4,411.533331 971.4,413.8 C971.4,416.066669 970.066669,417.2 967.4,417.2 Z M924,441.6 L935.2,435 L933.4,430.8 L925.6,432.6 L923,427 L934,423.8 L933,420.4 L914.2,420.6 L911.4,432 L924,441.6 Z M1010.8,441.6 L1023.4,432 L1020.6,420.6 L1001.8,420.4 L1000.8,423.8 L1011.8,427 L1009.2,432.6 L1001.4,430.8 L999.6,435 L1010.8,441.6 Z M975.6,453.2 L982.4,452.4 L985.4,434.8 L974.2,435.2 L975.6,453.2 Z M959.2,453.2 L960.6,435.6 L949.4,436 L952.4,452.4 L959.2,453.2 Z M960.4,470 L959.8,457.4 L944.2,454.2 L924.6,464.4 L926.4,470 L960.4,470 Z M990.6,454.2 L1010.2,464.4 L1008.4,470 L974.4,470 L975,457.4 L990.6,454.2 Z M992.4,343.4 C992.4,347.533337 991.766669,350.2 990.5,351.4 C989.233331,352.6 986.6,353.2 982.6,353.2 C978.2,353.2 975.233331,352.6 973.7,351.4 C972.21778,350.24 971.451963,347.771778 971.402556,343.995333 L971.4,343.6 L992.4,343.4 Z M942.4,343.4 L963.4,343.6 C963.4,347.6 962.633331,350.2 961.1,351.4 C959.566669,352.6 956.6,353.2 952.2,353.2 C948.2,353.2 945.566666,352.6 944.3,351.4 C943.033334,350.2 942.4,347.533337 942.4,343.4 Z" id="Robot"></path>
        </g>
    </g>
</svg>