<svg width="11" height="11" viewBox="0 0 11 11" fill="none" xmlns="http://www.w3.org/2000/svg">
<path fill-rule="evenodd" clip-rule="evenodd" d="M1.16665 4.6666C1.16665 2.73638 2.73638 1.16665 4.6666 1.16665C6.59683 1.16665 8.16655 2.73638 8.16655 4.6666C8.16655 6.59683 6.59683 8.16655 4.6666 8.16655C2.73638 8.16655 1.16665 6.59683 1.16665 4.6666ZM10.3289 9.50412L8.34855 7.52315C8.96279 6.73332 9.3332 5.74342 9.3332 4.6666C9.3332 2.09355 7.23965 0 4.6666 0C2.09355 0 0 2.09355 0 4.6666C0 7.23965 2.09355 9.3332 4.6666 9.3332C5.74342 9.3332 6.73332 8.96279 7.52315 8.34855L9.50412 10.3289C9.61787 10.4427 9.7672 10.4999 9.91653 10.4999C10.0659 10.4999 10.2152 10.4427 10.3289 10.3289C10.557 10.1009 10.557 9.7322 10.3289 9.50412Z" fill="#231F20"/>
</svg>
