<svg width="9" height="10" viewBox="0 0 9 10" fill="none" xmlns="http://www.w3.org/2000/svg">
<path fill-rule="evenodd" clip-rule="evenodd" d="M6.91907 0C7.36358 0 7.75598 0.275904 7.94605 0.723483C8.12079 1.13427 8.08094 1.6217 7.83875 1.99571L7.82036 2.0233L7.76518 2.09994L4.87738 5.49663C4.78541 5.60699 4.67198 5.69589 4.54936 5.76027V9.47885C4.54936 9.76395 4.31637 10 4.02821 10C3.74311 10 3.50705 9.76701 3.50705 9.47885V5.75414C3.3875 5.68976 3.2802 5.60392 3.18823 5.49663L0.300433 2.09994C0.00306896 1.75353 -0.0797023 1.25383 0.0797091 0.800123C0.251383 0.312692 0.668305 0 1.14347 0H6.91907ZM6.98345 1.45616L6.99571 1.44083C7.05089 1.3458 7.05702 1.22011 7.01411 1.11895C6.98038 1.03924 6.9344 1.01165 6.91907 1.01165H1.14347C1.09442 1.01165 1.05457 1.07603 1.03311 1.13427C0.990193 1.2569 1.01778 1.38259 1.0699 1.4439L3.9577 4.84365C3.97609 4.86818 4.00368 4.88044 4.03127 4.88044C4.05886 4.88044 4.08645 4.86818 4.10485 4.84365L6.98345 1.45616Z" fill="white"/>
</svg>
