<svg width="34" height="32" viewBox="0 0 34 32" fill="none" xmlns="http://www.w3.org/2000/svg">
<rect opacity="0.2" width="34" height="32" rx="4" fill="#7AD87A"/>
<path d="M18.0071 12.5412L17.436 12.2874V12.2874L18.0071 12.5412ZM21.5788 14.6052H22.2038L22.2038 14.6052L21.5788 14.6052ZM21.5788 15.8157H20.9538C20.9538 16.1609 21.2336 16.4407 21.5788 16.4407V15.8157ZM23.7019 15.8157L23.7019 16.4407L23.707 16.4407L23.7019 15.8157ZM25.3078 16.5395L25.7794 16.1294V16.1294L25.3078 16.5395ZM25.8006 18.2368L26.4185 18.3308L26.4185 18.3306L25.8006 18.2368ZM25.8004 18.2383L26.4181 18.333L26.4182 18.3323L25.8004 18.2383ZM25.038 23.2103L24.4202 23.1156L24.4201 23.1161L25.038 23.2103ZM25.0378 23.2113L24.42 23.1171L24.4199 23.1173L25.0378 23.2113ZM22.9393 24.9999L22.9444 24.3749H22.9393V24.9999ZM15.7966 17.5148L15.2255 17.261V17.261L15.7966 17.5148ZM17.7104 18.1332L17.1393 17.8793C17.1038 17.9593 17.0854 18.0457 17.0854 18.1332H17.7104ZM19.4514 14.216L19.955 13.8459C19.8231 13.6664 19.6056 13.5707 19.3841 13.5946C19.1627 13.6186 18.9707 13.7586 18.8802 13.9622L19.4514 14.216ZM17.7104 22.9999H17.0854C17.0854 23.345 17.3652 23.6249 17.7104 23.6249V22.9999ZM22.9553 22.9999L23.5803 23.0045C23.5816 22.838 23.5163 22.6778 23.3989 22.5596C23.2816 22.4414 23.1219 22.3749 22.9553 22.3749V22.9999ZM22.9553 22.9999L22.3303 22.9953C22.3278 23.3395 22.604 23.621 22.9483 23.6249L22.9553 22.9999ZM23.0606 22.9105L22.4427 22.8162L22.4427 22.8168L23.0606 22.9105ZM23.0608 22.9088L22.4431 22.8141L22.443 22.8146L23.0608 22.9088ZM23.8232 17.9367L24.441 18.0314L24.4413 18.0298L23.8232 17.9367ZM23.8233 17.9363L23.205 17.8447L23.2049 17.8456L23.8233 17.9363ZM23.7986 17.8518L23.327 18.2619L23.327 18.2619L23.7986 17.8518ZM23.718 17.8156L23.7109 17.1907H23.7109L23.718 17.8156ZM23.7067 17.8158H23.0817C23.0817 17.9828 23.1485 18.1428 23.2672 18.2602C23.386 18.3776 23.5468 18.4426 23.7137 18.4407L23.7067 17.8158ZM23.7067 17.8157H24.3317C24.3317 17.4705 24.0518 17.1907 23.7067 17.1907V17.8157ZM15.7104 22.9999V23.6249C16.0556 23.6249 16.3354 23.345 16.3354 22.9999H15.7104ZM15.7104 18.921H16.3354C16.3354 18.5758 16.0556 18.296 15.7104 18.296V18.921ZM18.9209 11.3223C18.2787 11.3223 17.6968 11.7005 17.436 12.2874L18.5782 12.795C18.6384 12.6596 18.7727 12.5723 18.9209 12.5723V11.3223ZM22.2038 14.6052C22.2038 12.7921 20.734 11.3223 18.9209 11.3223V12.5723C20.0436 12.5723 20.9538 13.4825 20.9538 14.6052L22.2038 14.6052ZM22.2038 15.8157V14.6052H20.9538V15.8157H22.2038ZM23.7019 15.1907H21.5788V16.4407H23.7019V15.1907ZM25.7794 16.1294C25.2557 15.527 24.4947 15.1842 23.6968 15.1907L23.707 16.4407C24.1396 16.4371 24.5522 16.623 24.8362 16.9496L25.7794 16.1294ZM26.4185 18.3306C26.5387 17.5386 26.3051 16.7338 25.7794 16.1294L24.8362 16.9496C25.1212 17.2773 25.2478 17.7136 25.1827 18.143L26.4185 18.3306ZM26.4182 18.3323L26.4185 18.3308L25.1827 18.1428L25.1825 18.1443L26.4182 18.3323ZM25.6558 23.3051L26.4181 18.333L25.1826 18.1436L24.4202 23.1156L25.6558 23.3051ZM25.6557 23.3055C25.6557 23.3052 25.6558 23.305 25.6558 23.3048C25.6558 23.3047 25.6558 23.3046 25.6558 23.3045L24.4201 23.1161C24.4201 23.1164 24.42 23.1166 24.42 23.1168C24.42 23.1169 24.42 23.117 24.42 23.1171L25.6557 23.3055ZM22.9341 25.6248C24.2915 25.636 25.4515 24.648 25.6557 23.3053L24.4199 23.1173C24.3092 23.8452 23.6803 24.3809 22.9444 24.3749L22.9341 25.6248ZM16.7104 25.6249H22.9393V24.3749H16.7104V25.6249ZM15.0854 23.9999C15.0854 24.8973 15.8129 25.6249 16.7104 25.6249V24.3749C16.5033 24.3749 16.3354 24.207 16.3354 23.9999H15.0854ZM15.0854 17.921V23.9999H16.3354V17.921H15.0854ZM15.2255 17.261C15.1331 17.4688 15.0854 17.6936 15.0854 17.921H16.3354C16.3354 17.8685 16.3464 17.8166 16.3677 17.7687L15.2255 17.261ZM17.436 12.2874L15.2255 17.261L16.3677 17.7687L18.5782 12.795L17.436 12.2874ZM18.2815 18.387L20.0225 14.4698L18.8802 13.9622L17.1393 17.8793L18.2815 18.387ZM18.3354 22.9999V18.1332H17.0854V22.9999H18.3354ZM22.944 22.3749H17.7104V23.6249H22.944V22.3749ZM22.9553 22.3749H22.944V23.6249H22.9553V22.3749ZM23.5803 23.0046V23.0045L22.3304 22.9952L22.3303 22.9953L23.5803 23.0046ZM22.4427 22.8168C22.4815 22.5605 22.7032 22.372 22.9624 22.375L22.9483 23.6249C23.3124 23.629 23.6239 23.3642 23.6785 23.0042L22.4427 22.8168ZM22.443 22.8146L22.4427 22.8162L23.6784 23.0047L23.6787 23.0031L22.443 22.8146ZM23.2055 17.842L22.4431 22.8141L23.6786 23.0036L24.441 18.0314L23.2055 17.842ZM23.2049 17.8456C23.2051 17.8442 23.2053 17.8431 23.2053 17.8429C23.2054 17.8421 23.2053 17.8432 23.2052 17.8436L24.4413 18.0298C24.4412 18.03 24.4411 18.031 24.4412 18.0302C24.4413 18.0298 24.4414 18.0286 24.4417 18.027L23.2049 17.8456ZM23.327 18.2619C23.2273 18.1473 23.1828 17.9949 23.205 17.8447L24.4415 18.0279C24.4728 17.8169 24.4102 17.6027 24.2702 17.4417L23.327 18.2619ZM23.7251 18.4406C23.5726 18.4423 23.427 18.377 23.327 18.2619L24.2702 17.4417C24.1296 17.28 23.9251 17.1883 23.7109 17.1907L23.7251 18.4406ZM23.7137 18.4407L23.7251 18.4406L23.7109 17.1907L23.6996 17.1908L23.7137 18.4407ZM23.0817 17.8157V17.8158H24.3317V17.8157H23.0817ZM20.5788 18.4407H23.7067V17.1907H20.5788V18.4407ZM18.9538 16.8157C18.9538 17.7132 19.6813 18.4407 20.5788 18.4407V17.1907C20.3717 17.1907 20.2038 17.0228 20.2038 16.8157H18.9538ZM18.9538 14.6052V16.8157H20.2038V14.6052H18.9538ZM18.9477 14.5861C18.9499 14.5891 18.9513 14.5919 18.9522 14.5947C18.9531 14.5972 18.9538 14.6005 18.9538 14.6052H20.2038C20.2038 14.322 20.1113 14.0585 19.955 13.8459L18.9477 14.5861ZM15.5723 19.0262C15.5723 19.3133 15.3396 19.546 15.0525 19.546V18.296C14.6492 18.296 14.3223 18.6229 14.3223 19.0262H15.5723ZM15.5723 22.8946V19.0262H14.3223V22.8946H15.5723ZM15.0525 22.3749C15.3396 22.3749 15.5723 22.6076 15.5723 22.8946H14.3223C14.3223 23.2979 14.6492 23.6249 15.0525 23.6249V22.3749ZM15.7104 22.3749H15.0525V23.6249H15.7104V22.3749ZM15.0854 18.921V22.9999H16.3354V18.921H15.0854ZM15.0525 19.546H15.7104V18.296H15.0525V19.546ZM15.0525 16.296C13.5446 16.296 12.3223 17.5183 12.3223 19.0262H13.5723C13.5723 18.2087 14.235 17.546 15.0525 17.546V16.296ZM16.7104 16.296H15.0525V17.546H16.7104V16.296ZM18.3354 17.921C18.3354 17.0235 17.6079 16.296 16.7104 16.296V17.546C16.9175 17.546 17.0854 17.7139 17.0854 17.921H18.3354ZM18.3354 23.9999V17.921H17.0854V23.9999H18.3354ZM16.7104 25.6249C17.6079 25.6249 18.3354 24.8973 18.3354 23.9999H17.0854C17.0854 24.207 16.9175 24.3749 16.7104 24.3749V25.6249ZM15.0525 25.6249H16.7104V24.3749H15.0525V25.6249ZM12.3223 22.8946C12.3223 24.4025 13.5446 25.6249 15.0525 25.6249V24.3749C14.235 24.3749 13.5723 23.7121 13.5723 22.8946H12.3223ZM12.3223 19.0262V22.8946H13.5723V19.0262H12.3223Z" fill="#7AD87A"/>
<path d="M12.3684 20.0525H11.1842C10.5302 20.0525 10 19.5223 10 18.8683V10.5789C10 9.70691 10.7069 9 11.5789 9H20.2023C20.6719 9 21.0525 9.38064 21.0525 9.85019V10.7004V11.5506" stroke="#7AD87A" stroke-width="1.25" stroke-linejoin="round"/>
</svg>
