<svg width="36" height="36" viewBox="0 0 36 36" fill="none" xmlns="http://www.w3.org/2000/svg">
<rect width="36" height="36" rx="8" fill="#F0EAFA"/>
<path d="M22.3862 15.5939L21.7008 15.2893V15.2893L22.3862 15.5939ZM26.4 19.9H25.65C25.65 20.3142 25.9858 20.65 26.4 20.65V19.9ZM29.3571 19.9L29.3571 20.65L29.3636 20.65L29.3571 19.9ZM31.1889 20.7251L30.623 21.2172L31.1889 20.7251ZM31.7507 22.6601L32.4922 22.7729L32.4922 22.7726L31.7507 22.6601ZM31.7505 22.6616L32.4918 22.7752L32.4919 22.7744L31.7505 22.6616ZM30.7847 28.96L30.0434 28.8463L30.0433 28.8468L30.7847 28.96ZM30.7846 28.9609L30.0432 28.8477L30.0431 28.8482L30.7846 28.9609ZM28.3911 31L28.3976 30.25H28.3911V31ZM19.5862 21.8939L18.9008 21.5893V21.5893L19.5862 21.8939ZM21.5 22.5122L20.8146 22.2076C20.772 22.3035 20.75 22.4073 20.75 22.5122H21.5ZM23.8772 17.1634L24.2714 16.5253C24.0871 16.4116 23.8627 16.3829 23.6559 16.4469C23.449 16.5108 23.2798 16.661 23.1919 16.8588L23.8772 17.1634ZM21.5 29H20.75C20.75 29.4142 21.0858 29.75 21.5 29.75V29ZM28.4073 29L29.1573 29.0056C29.1588 28.8058 29.0804 28.6135 28.9396 28.4717C28.7988 28.3298 28.6072 28.25 28.4073 28.25V29ZM28.4073 29.0001L27.6574 28.9945C27.6543 29.4076 27.9858 29.7454 28.3989 29.75L28.4073 29.0001ZM28.8073 28.6601L28.0659 28.547L28.0658 28.5476L28.8073 28.6601ZM28.8076 28.6585L28.0662 28.5448L28.0662 28.5454L28.8076 28.6585ZM29.7734 22.36L30.5147 22.4736L30.515 22.4713L29.7734 22.36ZM29.7735 22.3592L30.5151 22.4706L30.5152 22.4704L29.7735 22.3592ZM29.6797 22.0375L30.2457 21.5453L30.2457 21.5453L29.6797 22.0375ZM29.3734 21.8999L29.3818 22.6499L29.3818 22.6499L29.3734 21.8999ZM29.362 21.9001H28.612C28.612 22.1005 28.6922 22.2925 28.8347 22.4334C28.9772 22.5743 29.1701 22.6523 29.3705 22.65L29.362 21.9001ZM29.362 21.9H30.112C30.112 21.4858 29.7762 21.15 29.362 21.15V21.9ZM19.5 29V29.75C19.9142 29.75 20.25 29.4142 20.25 29H19.5ZM19.5 23.3H20.25C20.25 22.8858 19.9142 22.55 19.5 22.55V23.3ZM23.3 14.25C22.6084 14.25 21.9817 14.6573 21.7008 15.2893L23.0716 15.8985C23.1117 15.8082 23.2012 15.75 23.3 15.75V14.25ZM27.15 18.1C27.15 15.9737 25.4263 14.25 23.3 14.25V15.75C24.5979 15.75 25.65 16.8021 25.65 18.1H27.15ZM27.15 19.9V18.1H25.65V19.9H27.15ZM29.3571 19.15H26.4V20.65H29.3571V19.15ZM31.7549 20.233C31.1503 19.5377 30.2717 19.1421 29.3506 19.15L29.3636 20.65C29.8461 20.6458 30.3063 20.853 30.623 21.2172L31.7549 20.233ZM32.4922 22.7726C32.6309 21.8589 32.3613 20.9304 31.7549 20.233L30.623 21.2172C30.9406 21.5825 31.0818 22.0689 31.0092 22.5475L32.4922 22.7726ZM32.4919 22.7744L32.4922 22.7729L31.0092 22.5473L31.009 22.5488L32.4919 22.7744ZM31.5261 29.0736L32.4918 22.7752L31.0091 22.5479L30.0434 28.8463L31.5261 29.0736ZM31.526 29.0741L31.5261 29.0731L30.0433 28.8468L30.0432 28.8477L31.526 29.0741ZM28.3846 31.75C29.9514 31.7636 31.2904 30.6233 31.5261 29.0736L30.0431 28.8482C29.9197 29.6599 29.2183 30.2572 28.3976 30.2501L28.3846 31.75ZM20.5 31.75H28.3911V30.25H20.5V31.75ZM18.75 30C18.75 30.9665 19.5335 31.75 20.5 31.75V30.25C20.3619 30.25 20.25 30.1381 20.25 30H18.75ZM18.75 22.3V30H20.25V22.3H18.75ZM18.9008 21.5893C18.8014 21.813 18.75 22.0552 18.75 22.3H20.25C20.25 22.265 20.2573 22.2304 20.2716 22.1985L18.9008 21.5893ZM21.7008 15.2893L18.9008 21.5893L20.2716 22.1985L23.0716 15.8985L21.7008 15.2893ZM22.1854 22.8168L24.5626 17.468L23.1919 16.8588L20.8146 22.2076L22.1854 22.8168ZM22.25 29V22.5122H20.75V29H22.25ZM28.396 28.25H21.5V29.75H28.396V28.25ZM28.4073 28.25H28.396V29.75H28.4073V28.25ZM29.1573 29.0057V29.0056L27.6574 28.9944L27.6574 28.9945L29.1573 29.0057ZM28.0658 28.5476C28.092 28.3751 28.2413 28.2482 28.4158 28.2501L28.3989 29.75C28.9723 29.7565 29.4629 29.3395 29.5489 28.7725L28.0658 28.5476ZM28.0662 28.5454L28.0659 28.547L29.5488 28.7732L29.549 28.7715L28.0662 28.5454ZM29.032 22.2463L28.0662 28.5448L29.5489 28.7721L30.5147 22.4736L29.032 22.2463ZM29.0318 22.2478L29.0317 22.2486L30.515 22.4713L30.5151 22.4706L29.0318 22.2478ZM29.1138 22.5296C29.0465 22.4523 29.0166 22.3494 29.0318 22.248L30.5152 22.4704C30.5651 22.1375 30.4666 21.7994 30.2457 21.5453L29.1138 22.5296ZM29.3818 22.6499C29.2792 22.6511 29.1812 22.6071 29.1138 22.5296L30.2457 21.5453C30.0243 21.2907 29.7022 21.1462 29.3649 21.15L29.3818 22.6499ZM29.3705 22.65L29.3818 22.6499L29.3649 21.15L29.3536 21.1501L29.3705 22.65ZM28.612 21.9V21.9001H30.112V21.9H28.612ZM25.4 22.65H29.362V21.15H25.4V22.65ZM23.65 20.9C23.65 21.8665 24.4335 22.65 25.4 22.65V21.15C25.2619 21.15 25.15 21.0381 25.15 20.9H23.65ZM23.65 18.1V20.9H25.15V18.1H23.65ZM23.4831 17.8015C23.5849 17.8644 23.65 17.9749 23.65 18.1H25.15C25.15 17.4335 24.797 16.85 24.2714 16.5253L23.4831 17.8015ZM18.75 23.7C18.75 23.8933 18.5933 24.05 18.4 24.05V22.55C17.7649 22.55 17.25 23.0649 17.25 23.7H18.75ZM18.75 28.6V23.7H17.25V28.6H18.75ZM18.4 28.25C18.5933 28.25 18.75 28.4067 18.75 28.6H17.25C17.25 29.2352 17.7649 29.75 18.4 29.75V28.25ZM19.5 28.25H18.4V29.75H19.5V28.25ZM18.75 23.3V29H20.25V23.3H18.75ZM18.4 24.05H19.5V22.55H18.4V24.05ZM18.4 20.55C16.6603 20.55 15.25 21.9603 15.25 23.7H16.75C16.75 22.7887 17.4887 22.05 18.4 22.05V20.55ZM20.5 20.55H18.4V22.05H20.5V20.55ZM22.25 22.3C22.25 21.3335 21.4665 20.55 20.5 20.55V22.05C20.6381 22.05 20.75 22.1619 20.75 22.3H22.25ZM22.25 30V22.3H20.75V30H22.25ZM20.5 31.75C21.4665 31.75 22.25 30.9665 22.25 30H20.75C20.75 30.1381 20.6381 30.25 20.5 30.25V31.75ZM18.4 31.75H20.5V30.25H18.4V31.75ZM15.25 28.6C15.25 30.3397 16.6603 31.75 18.4 31.75V30.25C17.4887 30.25 16.75 29.5113 16.75 28.6H15.25ZM15.25 23.7V28.6H16.75V23.7H15.25Z" fill="#BF99D7"/>
<path d="M15 24H9.5C8.67157 24 8 23.3284 8 22.5V12C8 10.8954 8.89543 10 10 10H20.9231C21.5178 10 22 10.4822 22 11.0769V12.1538V13.2308" stroke="#BF99D7" stroke-width="1.5" stroke-linejoin="round"/>
<circle cx="11.5" cy="15.5" r="1" fill="#BF99D7"/>
<path d="M18.1429 19.5714L15.2857 16.7143L9 23" stroke="#BF99D7" stroke-width="1.5" stroke-linecap="round" stroke-linejoin="round"/>
</svg>
