<svg width="36" height="36" viewBox="0 0 36 36" fill="none" xmlns="http://www.w3.org/2000/svg">
<rect width="36" height="36" rx="8" fill="#FAEAEA"/>
<path d="M19.4221 28.2791V19.4931H28.2081V28.2791H19.4221Z" stroke="#FF9090" stroke-width="1.5"/>
<path d="M8.60013 9.11769C8.749 9.11769 8.89322 9.05721 8.99557 8.95486C9.09792 8.85251 9.1584 8.70829 9.1584 8.55942C9.1584 8.4152 9.09792 8.26633 8.99557 8.16399C8.89322 8.06164 8.749 8.00116 8.60013 8.00116C8.45126 8.00116 8.30705 8.06164 8.2047 8.16399C8.10235 8.26633 8.04187 8.41055 8.04187 8.55942C8.04187 8.70829 8.10235 8.85251 8.2047 8.95486C8.3117 9.05721 8.45126 9.11769 8.60013 9.11769Z" fill="#FF9090"/>
<path d="M13.1872 9.11769C13.4942 9.11769 13.7454 8.86647 13.7454 8.55942C13.7454 8.25238 13.4942 8.00116 13.1872 8.00116C12.8801 8.00116 12.6289 8.25238 12.6289 8.55942C12.6289 8.86647 12.8755 9.11769 13.1872 9.11769Z" fill="#FF9090"/>
<path d="M10.8937 9.11769C11.2008 9.11769 11.452 8.86647 11.452 8.55942C11.452 8.25238 11.2008 8.00116 10.8937 8.00116C10.5867 8.00116 10.3354 8.25238 10.3354 8.55942C10.3354 8.86647 10.5867 9.11769 10.8937 9.11769Z" fill="#FF9090"/>
<path d="M15.4761 9.11769C15.7832 9.11769 16.0344 8.86647 16.0344 8.55942C16.0344 8.25238 15.7832 8.00116 15.4761 8.00116C15.1691 8.00116 14.9178 8.25238 14.9178 8.55942C14.9178 8.86647 15.1691 9.11769 15.4761 9.11769Z" fill="#FF9090"/>
<path d="M17.7696 8.00116C17.6253 8.00116 17.4765 8.06164 17.3741 8.16399C17.2718 8.26633 17.2113 8.41055 17.2113 8.55942C17.2113 8.70829 17.2718 8.85251 17.3741 8.95486C17.4765 9.05721 17.6207 9.11769 17.7696 9.11769C17.9184 9.11769 18.0627 9.05721 18.165 8.95486C18.2674 8.85251 18.3278 8.70829 18.3278 8.55942C18.3278 8.41055 18.2674 8.26633 18.165 8.16399C18.0627 8.06164 17.9184 8.00116 17.7696 8.00116Z" fill="#FF9090"/>
<path d="M17.7696 14.8818C17.4625 14.8818 17.2113 15.133 17.2113 15.44C17.2113 15.7471 17.4625 15.9983 17.7696 15.9983C18.0766 15.9983 18.3278 15.7471 18.3278 15.44C18.3278 15.1283 18.0813 14.8818 17.7696 14.8818Z" fill="#FF9090"/>
<path d="M17.7696 12.5882C17.4625 12.5882 17.2113 12.8394 17.2113 13.1465C17.2113 13.4535 17.4625 13.7047 17.7696 13.7047C18.0766 13.7047 18.3278 13.4535 18.3278 13.1465C18.3278 12.8348 18.0813 12.5882 17.7696 12.5882Z" fill="#FF9090"/>
<path d="M17.7696 10.2947C17.4625 10.2947 17.2113 10.5459 17.2113 10.853C17.2113 11.16 17.4625 11.4112 17.7696 11.4112C18.0766 11.4112 18.3278 11.16 18.3278 10.853C18.3278 10.5459 18.0813 10.2947 17.7696 10.2947Z" fill="#FF9090"/>
<path d="M17.7696 17.1706C17.6207 17.1706 17.4765 17.2311 17.3741 17.3335C17.2718 17.4358 17.2113 17.58 17.2113 17.7289C17.2113 17.8731 17.2718 18.022 17.3741 18.1243C17.4765 18.2267 17.6207 18.2872 17.7696 18.2872C17.9184 18.2872 18.0627 18.2267 18.165 18.1243C18.2674 18.022 18.3278 17.8778 18.3278 17.7289C18.3278 17.58 18.2674 17.4358 18.165 17.3335C18.0627 17.2311 17.9184 17.1706 17.7696 17.1706Z" fill="#FF9090"/>
<path d="M15.4761 18.2872C15.7832 18.2872 16.0344 18.0359 16.0344 17.7289C16.0344 17.4218 15.7832 17.1706 15.4761 17.1706C15.1691 17.1706 14.9178 17.4218 14.9178 17.7289C14.9178 18.0406 15.1691 18.2872 15.4761 18.2872Z" fill="#FF9090"/>
<path d="M13.1872 18.2872C13.4942 18.2872 13.7454 18.0359 13.7454 17.7289C13.7454 17.4218 13.4942 17.1706 13.1872 17.1706C12.8801 17.1706 12.6289 17.4218 12.6289 17.7289C12.6289 18.0406 12.8755 18.2872 13.1872 18.2872Z" fill="#FF9090"/>
<path d="M10.8937 18.2872C11.2008 18.2872 11.452 18.0359 11.452 17.7289C11.452 17.4218 11.2008 17.1706 10.8937 17.1706C10.5867 17.1706 10.3354 17.4218 10.3354 17.7289C10.3354 18.0406 10.5867 18.2872 10.8937 18.2872Z" fill="#FF9090"/>
<path d="M8.60013 18.2872C8.749 18.2872 8.89322 18.2267 8.99557 18.1243C9.09792 18.022 9.1584 17.8778 9.1584 17.7289C9.1584 17.58 9.09792 17.4358 8.99557 17.3335C8.89322 17.2311 8.749 17.1706 8.60013 17.1706C8.45126 17.1706 8.30705 17.2311 8.2047 17.3335C8.10235 17.4358 8.04187 17.58 8.04187 17.7289C8.04187 17.8731 8.10235 18.022 8.2047 18.1243C8.3117 18.2267 8.45126 18.2872 8.60013 18.2872Z" fill="#FF9090"/>
<path d="M8.60013 15.9983C8.90718 15.9983 9.1584 15.7471 9.1584 15.44C9.1584 15.133 8.90718 14.8818 8.60013 14.8818C8.29309 14.8818 8.04187 15.133 8.04187 15.44C8.04187 15.7471 8.29309 15.9983 8.60013 15.9983Z" fill="#FF9090"/>
<path d="M8.60013 13.7047C8.90718 13.7047 9.1584 13.4535 9.1584 13.1465C9.1584 12.8394 8.90718 12.5882 8.60013 12.5882C8.29309 12.5882 8.04187 12.8394 8.04187 13.1465C8.04187 13.4535 8.29309 13.7047 8.60013 13.7047Z" fill="#FF9090"/>
<path d="M8.60013 11.4112C8.90718 11.4112 9.1584 11.16 9.1584 10.853C9.1584 10.5459 8.90718 10.2947 8.60013 10.2947C8.29309 10.2947 8.04187 10.5459 8.04187 10.853C8.04187 11.16 8.29309 11.4112 8.60013 11.4112Z" fill="#FF9090"/>
<path d="M15.5303 29.5303L15 29L15.5303 29.5303ZM14.4697 29.5303L15 29L14.4697 29.5303ZM17.0303 28.0303L17.5607 28.5607L17.0303 28.0303ZM17.0303 26.9697L17.5607 26.4393L17.0303 26.9697ZM15.5303 25.4697L16.0607 24.9393L15.5303 25.4697ZM14.4697 25.4697L13.9393 24.9393L13.9393 24.9393L14.4697 25.4697ZM14.4697 26.5303L13.9393 27.0607V27.0607L14.4697 26.5303ZM15.4393 27.5L15.9697 28.0303C16.1103 27.8897 16.1893 27.6989 16.1893 27.5C16.1893 27.3011 16.1103 27.1103 15.9697 26.9697L15.4393 27.5ZM14.4697 28.4697L15 29L14.4697 28.4697ZM15 29L13.9393 30.0607C14.5251 30.6464 15.4749 30.6464 16.0607 30.0607L15 29ZM16.5 27.5L15 29L16.0607 30.0607L17.5607 28.5607L16.5 27.5ZM16.5 27.5L17.5607 28.5607C18.1464 27.9749 18.1464 27.0251 17.5607 26.4393L16.5 27.5ZM15 26L16.5 27.5L17.5607 26.4393L16.0607 24.9393L15 26ZM15 26L16.0607 24.9393C15.4749 24.3536 14.5251 24.3536 13.9393 24.9393L15 26ZM15 26V26L13.9393 24.9393C13.3536 25.5251 13.3536 26.4749 13.9393 27.0607L15 26ZM15.9697 26.9697L15 26L13.9393 27.0607L14.909 28.0303L15.9697 26.9697ZM15 29L15.9697 28.0303L14.909 26.9697L13.9393 27.9393L15 29ZM15 29L13.9393 27.9393C13.3536 28.5251 13.3536 29.4749 13.9393 30.0607L15 29ZM9 24.5C9 26.1569 10.3431 27.5 12 27.5V26C11.1716 26 10.5 25.3284 10.5 24.5H9ZM9 23V24.5H10.5V23H9ZM9 23H10.5C10.5 22.1716 9.82843 21.5 9 21.5V23ZM9 23V21.5C8.17157 21.5 7.5 22.1716 7.5 23H9ZM9 24.5V23H7.5V24.5H9ZM12 27.5C10.3431 27.5 9 26.1569 9 24.5H7.5C7.5 26.9853 9.51472 29 12 29V27.5ZM16.5 27.5H12V29H16.5V27.5ZM16.5 27.5V29C17.3284 29 18 28.3284 18 27.5H16.5ZM16.5 27.5H18C18 26.6716 17.3284 26 16.5 26V27.5ZM12 27.5H16.5V26H12V27.5Z" fill="#FF9090"/>
<path d="M21.9697 7.46967L22.5 8L21.9697 7.46967ZM23.0303 7.46967L22.5 8L23.0303 7.46967ZM20.4697 8.96967L19.9393 8.43934L20.4697 8.96967ZM20.4697 10.0303L19.9393 10.5607L20.4697 10.0303ZM21.9697 11.5303L21.4393 12.0607L21.9697 11.5303ZM23.0303 11.5303L23.5607 12.0607L23.5607 12.0607L23.0303 11.5303ZM23.0303 10.4697L23.5607 9.93934V9.93934L23.0303 10.4697ZM22.0607 9.5L21.5303 8.96967C21.3897 9.11032 21.3107 9.30109 21.3107 9.5C21.3107 9.69891 21.3897 9.88968 21.5303 10.0303L22.0607 9.5ZM23.0303 8.53033L22.5 8L23.0303 8.53033ZM22.5 8L23.5607 6.93934C22.9749 6.35355 22.0251 6.35355 21.4393 6.93934L22.5 8ZM21 9.5L22.5 8L21.4393 6.93934L19.9393 8.43934L21 9.5ZM21 9.5L19.9393 8.43934C19.3536 9.02513 19.3536 9.97487 19.9393 10.5607L21 9.5ZM22.5 11L21 9.5L19.9393 10.5607L21.4393 12.0607L22.5 11ZM22.5 11L21.4393 12.0607C22.0251 12.6464 22.9749 12.6464 23.5607 12.0607L22.5 11ZM22.5 11V11L23.5607 12.0607C24.1464 11.4749 24.1464 10.5251 23.5607 9.93934L22.5 11ZM21.5303 10.0303L22.5 11L23.5607 9.93934L22.591 8.96967L21.5303 10.0303ZM22.5 8L21.5303 8.96967L22.591 10.0303L23.5607 9.06066L22.5 8ZM22.5 8L23.5607 9.06066C24.1464 8.47487 24.1464 7.52513 23.5607 6.93934L22.5 8ZM28.5 12.5C28.5 10.8431 27.1569 9.5 25.5 9.5V11C26.3284 11 27 11.6716 27 12.5H28.5ZM28.5 14V12.5H27V14H28.5ZM28.5 14H27C27 14.8284 27.6716 15.5 28.5 15.5V14ZM28.5 14V15.5C29.3284 15.5 30 14.8284 30 14H28.5ZM28.5 12.5V14H30V12.5H28.5ZM25.5 9.5C27.1569 9.5 28.5 10.8431 28.5 12.5H30C30 10.0147 27.9853 8 25.5 8V9.5ZM21 9.5H25.5V8H21V9.5ZM21 9.5V8C20.1716 8 19.5 8.67157 19.5 9.5H21ZM21 9.5H19.5C19.5 10.3284 20.1716 11 21 11V9.5ZM25.5 9.5H21V11H25.5V9.5Z" fill="#FF9090"/>
</svg>
