<svg width="36" height="36" viewBox="0 0 36 36" fill="none" xmlns="http://www.w3.org/2000/svg">
<rect width="36" height="36" rx="8" fill="#FAEAEA"/>
<path d="M10.8 8.25C9.39579 8.25 8.25 9.39579 8.25 10.8V25.2C8.25 26.6083 9.39167 27.75 10.8 27.75H25.2C26.6083 27.75 27.75 26.6083 27.75 25.2V10.8C27.75 9.39167 26.6083 8.25 25.2 8.25H10.8Z" stroke="#FF9090" stroke-width="1.5" stroke-linejoin="round"/>
<path d="M23.3225 13.3846L23.8528 13.9149L24.3831 13.3846L23.8528 12.8543L23.3225 13.3846ZM22.9689 13.7382L23.4993 14.2685L23.4993 14.2685L22.9689 13.7382ZM22.6154 12.6775L23.1457 12.1472L22.6154 11.6168L22.085 12.1472L22.6154 12.6775ZM22.2618 13.031L21.7315 12.5007V12.5007L22.2618 13.031ZM18 17.2929L17.4697 17.8232L18 18.3535L18.5303 17.8232L18 17.2929ZM13.7382 13.031L14.2685 12.5007L14.2685 12.5007L13.7382 13.031ZM13.3846 12.6775L13.9149 12.1472L13.3846 11.6168L12.8543 12.1472L13.3846 12.6775ZM12.6775 13.3846L12.1472 12.8543L11.6168 13.3846L12.1472 13.9149L12.6775 13.3846ZM13.031 13.7382L12.5007 14.2685L12.5007 14.2685L13.031 13.7382ZM17.2929 18L17.8232 18.5303L18.3535 18L17.8232 17.4697L17.2929 18ZM13.031 22.2618L12.5007 21.7315H12.5007L13.031 22.2618ZM12.6775 22.6154L12.1472 22.085L11.6168 22.6154L12.1472 23.1457L12.6775 22.6154ZM13.3846 23.3225L12.8543 23.8528L13.3846 24.3831L13.9149 23.8528L13.3846 23.3225ZM13.7382 22.9689L14.2685 23.4993L14.2685 23.4993L13.7382 22.9689ZM18 18.7071L18.5303 18.1768L18 17.6464L17.4697 18.1768L18 18.7071ZM22.2618 22.9689L21.7315 23.4993V23.4993L22.2618 22.9689ZM22.6154 23.3225L22.085 23.8528L22.6154 24.3831L23.1457 23.8528L22.6154 23.3225ZM23.3225 22.6154L23.8528 23.1457L24.3831 22.6154L23.8528 22.085L23.3225 22.6154ZM18.7071 18L18.1768 17.4697L17.6464 18L18.1768 18.5303L18.7071 18ZM22.7921 12.8543L22.4386 13.2078L23.4993 14.2685L23.8528 13.9149L22.7921 12.8543ZM22.085 13.2078L22.7921 13.9149L23.8528 12.8543L23.1457 12.1472L22.085 13.2078ZM22.7921 13.5614L23.1457 13.2078L22.085 12.1472L21.7315 12.5007L22.7921 13.5614ZM18.5303 17.8232L22.7921 13.5614L21.7315 12.5007L17.4697 16.7625L18.5303 17.8232ZM18.5303 16.7625L14.2685 12.5007L13.2078 13.5614L17.4697 17.8232L18.5303 16.7625ZM14.2685 12.5007L13.9149 12.1472L12.8543 13.2078L13.2078 13.5614L14.2685 12.5007ZM12.8543 12.1472L12.1472 12.8543L13.2078 13.9149L13.9149 13.2078L12.8543 12.1472ZM12.1472 13.9149L12.5007 14.2685L13.5614 13.2078L13.2078 12.8543L12.1472 13.9149ZM12.5007 14.2685L16.7625 18.5303L17.8232 17.4697L13.5614 13.2078L12.5007 14.2685ZM13.5614 22.7921L17.8232 18.5303L16.7625 17.4697L12.5007 21.7315L13.5614 22.7921ZM13.2078 23.1457L13.5614 22.7921L12.5007 21.7315L12.1472 22.085L13.2078 23.1457ZM13.9149 22.7921L13.2078 22.085L12.1472 23.1457L12.8543 23.8528L13.9149 22.7921ZM13.2078 22.4386L12.8543 22.7921L13.9149 23.8528L14.2685 23.4993L13.2078 22.4386ZM17.4697 18.1768L13.2078 22.4386L14.2685 23.4993L18.5303 19.2374L17.4697 18.1768ZM17.4697 19.2374L21.7315 23.4993L22.7921 22.4386L18.5303 18.1768L17.4697 19.2374ZM21.7315 23.4993L22.085 23.8528L23.1457 22.7921L22.7921 22.4386L21.7315 23.4993ZM23.1457 23.8528L23.8528 23.1457L22.7921 22.085L22.085 22.7921L23.1457 23.8528ZM23.8528 22.085L23.4992 21.7315L22.4386 22.7921L22.7921 23.1457L23.8528 22.085ZM23.4992 21.7315L19.2374 17.4697L18.1768 18.5303L22.4386 22.7921L23.4992 21.7315ZM22.4386 13.2078L18.1768 17.4697L19.2374 18.5303L23.4993 14.2685L22.4386 13.2078Z" fill="#FF9090"/>
</svg>
