<svg width="36" height="36" viewBox="0 0 36 36" fill="none" xmlns="http://www.w3.org/2000/svg">
<rect width="36" height="36" rx="8" fill="#E6F7EF"/>
<path d="M10.8 8.25C9.39579 8.25 8.25 9.39579 8.25 10.8V25.2C8.25 26.6083 9.39167 27.75 10.8 27.75H25.2C26.6083 27.75 27.75 26.6083 27.75 25.2V10.8C27.75 9.39167 26.6083 8.25 25.2 8.25H10.8Z" stroke="#37E291" stroke-width="1.5" stroke-linejoin="round"/>
<path fill-rule="evenodd" clip-rule="evenodd" d="M16.6218 20.6104L16.9845 21L22 15.6116L21.4307 15L16.9845 19.7768L14.5693 17.182L14 17.7936L16.4152 20.3884L16.6218 20.6104Z" fill="#37E291"/>
<path d="M16.9845 21L16.6185 21.3407C16.7131 21.4423 16.8457 21.5 16.9845 21.5C17.1233 21.5 17.2559 21.4423 17.3505 21.3407L16.9845 21ZM16.6218 20.6104L16.9878 20.2697H16.9878L16.6218 20.6104ZM22 15.6116L22.366 15.9523C22.5447 15.7603 22.5447 15.4629 22.366 15.2709L22 15.6116ZM21.4307 15L21.7967 14.6593C21.7021 14.5577 21.5695 14.5 21.4307 14.5C21.2919 14.5 21.1593 14.5577 21.0647 14.6593L21.4307 15ZM16.9845 19.7768L16.6185 20.1175C16.7131 20.2191 16.8457 20.2768 16.9845 20.2768C17.1233 20.2768 17.2559 20.2191 17.3505 20.1175L16.9845 19.7768ZM14.5693 17.182L14.9353 16.8413C14.8407 16.7397 14.7081 16.682 14.5693 16.682C14.4305 16.682 14.2979 16.7397 14.2033 16.8413L14.5693 17.182ZM14 17.7936L13.634 17.4529C13.4553 17.6449 13.4553 17.9423 13.634 18.1342L14 17.7936ZM16.4152 20.3884L16.0493 20.7291H16.0493L16.4152 20.3884ZM17.3505 20.6593L16.9878 20.2697L16.2558 20.951L16.6185 21.3407L17.3505 20.6593ZM21.634 15.2709L16.6185 20.6593L17.3505 21.3407L22.366 15.9523L21.634 15.2709ZM21.0647 15.3407L21.634 15.9523L22.366 15.2709L21.7967 14.6593L21.0647 15.3407ZM17.3505 20.1175L21.7967 15.3407L21.0647 14.6593L16.6185 19.4361L17.3505 20.1175ZM14.2033 17.5226L16.6185 20.1175L17.3505 19.4361L14.9353 16.8413L14.2033 17.5226ZM14.366 18.1342L14.9353 17.5226L14.2033 16.8413L13.634 17.4529L14.366 18.1342ZM16.7812 20.0477L14.366 17.4529L13.634 18.1342L16.0493 20.7291L16.7812 20.0477ZM16.9878 20.2697L16.7812 20.0477L16.0493 20.7291L16.2558 20.951L16.9878 20.2697Z" fill="#37E291"/>
</svg>
