<svg width="36" height="36" viewBox="0 0 36 36" fill="none" xmlns="http://www.w3.org/2000/svg">
<rect width="36" height="36" rx="7.96596" fill="#EAF5FA"/>
<path d="M22.4903 14.2049C22.6892 14.732 22.798 15.3032 22.798 15.8999C22.798 16.901 22.4918 17.8307 21.9676 18.5999C21.6282 19.0985 21.1973 19.5296 20.6988 19.8692C19.9299 20.3936 19.0006 20.6999 17.9999 20.6999C15.3498 20.6999 13.2018 18.551 13.2018 15.8999C13.2018 15.3038 13.3106 14.7329 13.5095 14.2058" stroke="#50BEFF" stroke-width="1.49362" stroke-linecap="round" stroke-linejoin="round"/>
<path d="M27 18C25.9951 16.3269 24.5382 14.9568 22.7977 14.0598C22.2267 13.7652 21.6252 13.5219 20.999 13.3353C20.0487 13.0521 19.0423 12.9 17.9999 12.9C14.1779 12.9 10.8348 14.9448 9.00012 18" stroke="#50BEFF" stroke-width="1.49362" stroke-linecap="round" stroke-linejoin="round"/>
<path d="M9 18C10.8347 21.0552 14.1781 23.1 18.0001 23.1C19.0422 23.1 20.0489 22.9479 20.9989 22.6647C21.736 22.4451 22.4386 22.1469 23.0981 21.7794C24.0439 21.252 24.8998 20.5827 25.6369 19.8C26.1524 19.2522 26.6103 18.6489 26.9998 18" stroke="#50BEFF" stroke-width="1.49362" stroke-linecap="round" stroke-linejoin="round"/>
<path d="M15.0012 27H10.2031C9.54063 27 9.00354 26.4627 9.00354 25.8V22.8" stroke="#50BEFF" stroke-width="1.49362" stroke-linecap="round" stroke-linejoin="round"/>
<path d="M26.9964 22.8V25.8C26.9964 26.4627 26.4593 27 25.7969 27H20.9988" stroke="#50BEFF" stroke-width="1.49362" stroke-linecap="round" stroke-linejoin="round"/>
<path d="M20.9988 9H25.7969C26.4593 9 26.9964 9.5373 26.9964 10.2V13.2" stroke="#50BEFF" stroke-width="1.49362" stroke-linecap="round" stroke-linejoin="round"/>
<path d="M9.00354 13.2V10.2C9.00354 9.5373 9.54063 9 10.2031 9H15.0012" stroke="#50BEFF" stroke-width="1.49362" stroke-linecap="round" stroke-linejoin="round"/>
<path fill-rule="evenodd" clip-rule="evenodd" d="M16.1006 16.9203C15.6703 17.1687 15.1203 17.0214 14.872 16.5909C14.6234 16.1604 14.7709 15.6102 15.2013 15.3618C15.6316 15.1134 16.1816 15.2607 16.4302 15.6912C16.6785 16.1214 16.5309 16.6719 16.1006 16.9203Z" fill="#50BEFF"/>
</svg>
